# Blender v2.79 (sub 0) OBJ File: 'walls.blend'
# www.blender.org
mtllib walls.mtl
o Frame.003_Cube.004
v 5.096146 2.000000 -3.000000
v 5.096146 3.000000 -3.000000
v 4.996146 2.000000 -3.000000
v 4.996146 3.000000 -3.000000
v 5.096146 2.000000 -2.000000
v 5.096146 3.000000 -2.000000
v 4.996146 2.000000 -2.000000
v 4.996146 3.000000 -2.000000
v 4.996146 3.025000 -1.975000
v 4.996146 1.975000 -1.975000
v 5.096146 1.975000 -1.975000
v 5.096146 3.025000 -1.975000
v 5.096146 3.025000 -3.025000
v 4.996146 3.025000 -3.025000
v 4.996146 1.975000 -3.025000
v 5.096146 1.975000 -3.025000
vn 1.0000 0.0000 0.0000
vn 0.0000 0.0000 1.0000
vn 0.0000 1.0000 0.0000
vn 0.0000 0.0000 -1.0000
vn 0.0000 -1.0000 0.0000
usemtl Frames
s off
f 12//1 5//1 6//1
f 11//2 9//2 10//2
f 12//3 14//3 9//3
f 2//1 12//1 6//1
f 15//4 13//4 16//4
f 16//1 2//1 1//1
f 16//5 10//5 15//5
f 11//1 1//1 5//1
f 2//5 8//5 4//5
f 2//2 3//2 1//2
f 5//3 3//3 7//3
f 8//4 5//4 7//4
f 12//1 11//1 5//1
f 11//2 12//2 9//2
f 12//3 13//3 14//3
f 2//1 13//1 12//1
f 15//4 14//4 13//4
f 16//1 13//1 2//1
f 16//5 11//5 10//5
f 11//1 16//1 1//1
f 2//5 6//5 8//5
f 2//2 4//2 3//2
f 5//3 1//3 3//3
f 8//4 6//4 5//4
o Frame.002_Cube.003
v -0.096146 2.000000 -3.000000
v -0.096146 3.000000 -3.000000
v 0.003854 2.000000 -3.000000
v 0.003854 3.000000 -3.000000
v -0.096146 2.000000 -2.000000
v -0.096146 3.000000 -2.000000
v 0.003854 2.000000 -2.000000
v 0.003854 3.000000 -2.000000
v 0.003854 3.025000 -1.975000
v 0.003854 1.975000 -1.975000
v -0.096146 1.975000 -1.975000
v -0.096146 3.025000 -1.975000
v -0.096146 3.025000 -3.025000
v 0.003854 3.025000 -3.025000
v 0.003854 1.975000 -3.025000
v -0.096146 1.975000 -3.025000
vn -1.0000 0.0000 0.0000
vn 0.0000 0.0000 1.0000
vn 0.0000 1.0000 0.0000
vn 0.0000 0.0000 -1.0000
vn 0.0000 -1.0000 0.0000
usemtl Frames
s off
f 21//6 28//6 22//6
f 25//7 27//7 26//7
f 30//8 28//8 25//8
f 18//6 28//6 29//6
f 29//9 31//9 32//9
f 18//6 32//6 17//6
f 26//10 32//10 31//10
f 17//6 27//6 21//6
f 24//10 18//10 20//10
f 19//7 18//7 17//7
f 19//8 21//8 23//8
f 21//9 24//9 23//9
f 21//6 27//6 28//6
f 25//7 28//7 27//7
f 30//8 29//8 28//8
f 18//6 22//6 28//6
f 29//9 30//9 31//9
f 18//6 29//6 32//6
f 26//10 27//10 32//10
f 17//6 32//6 27//6
f 24//10 22//10 18//10
f 19//7 20//7 18//7
f 19//8 17//8 21//8
f 21//9 22//9 24//9
o Frame.001_Cube.002
v 2.000000 2.000000 -5.096146
v 2.000000 3.000000 -5.096146
v 2.000000 2.000000 -4.996146
v 2.000000 3.000000 -4.996146
v 3.000000 2.000000 -5.096146
v 3.000000 3.000000 -5.096146
v 3.000000 2.000000 -4.996146
v 3.000000 3.000000 -4.996146
v 3.025000 3.025000 -4.996146
v 3.025000 1.975000 -4.996146
v 3.025000 1.975000 -5.096146
v 3.025000 3.025000 -5.096146
v 1.975000 3.025000 -5.096146
v 1.975000 3.025000 -4.996146
v 1.975000 1.975000 -4.996146
v 1.975000 1.975000 -5.096146
vn -0.0000 0.0000 -1.0000
vn 1.0000 0.0000 0.0000
vn 0.0000 1.0000 0.0000
vn -1.0000 0.0000 0.0000
vn 0.0000 -1.0000 0.0000
usemtl Frames
s off
f 38//11 43//11 37//11
f 43//12 41//12 42//12
f 44//13 46//13 41//13
f 45//11 38//11 34//11
f 47//14 45//14 48//14
f 48//11 34//11 33//11
f 48//15 42//15 47//15
f 43//11 33//11 37//11
f 34//15 40//15 36//15
f 34//12 35//12 33//12
f 37//13 35//13 39//13
f 40//14 37//14 39//14
f 38//11 44//11 43//11
f 43//12 44//12 41//12
f 44//13 45//13 46//13
f 45//11 44//11 38//11
f 47//14 46//14 45//14
f 48//11 45//11 34//11
f 48//15 43//15 42//15
f 43//11 48//11 33//11
f 34//15 38//15 40//15
f 34//12 36//12 35//12
f 37//13 33//13 35//13
f 40//14 38//14 37//14
o Frame.000_Cube.001
v 2.000000 2.000000 0.096146
v 2.000000 3.000000 0.096146
v 2.000000 2.000000 -0.003854
v 2.000000 3.000000 -0.003854
v 3.000000 2.000000 0.096146
v 3.000000 3.000000 0.096146
v 3.000000 2.000000 -0.003854
v 3.000000 3.000000 -0.003854
v 3.025000 3.025000 -0.003854
v 3.025000 1.975000 -0.003854
v 3.025000 1.975000 0.096146
v 3.025000 3.025000 0.096146
v 1.975000 3.025000 0.096146
v 1.975000 3.025000 -0.003854
v 1.975000 1.975000 -0.003854
v 1.975000 1.975000 0.096146
vn 0.0000 0.0000 1.0000
vn 1.0000 0.0000 0.0000
vn 0.0000 1.0000 0.0000
vn -1.0000 0.0000 0.0000
vn 0.0000 -1.0000 0.0000
usemtl Frames
s off
f 54//16 59//16 60//16
f 57//17 59//17 58//17
f 62//18 60//18 57//18
f 54//16 61//16 50//16
f 61//19 63//19 64//19
f 50//16 64//16 49//16
f 58//20 64//20 63//20
f 49//16 59//16 53//16
f 56//20 50//20 52//20
f 51//17 50//17 49//17
f 51//18 53//18 55//18
f 53//19 56//19 55//19
f 54//16 53//16 59//16
f 57//17 60//17 59//17
f 62//18 61//18 60//18
f 54//16 60//16 61//16
f 61//19 62//19 63//19
f 50//16 61//16 64//16
f 58//20 59//20 64//20
f 49//16 64//16 59//16
f 56//20 54//20 50//20
f 51//17 52//17 50//17
f 51//18 49//18 53//18
f 53//19 54//19 56//19
o Cube
v 5.000000 0.000000 -5.000000
v 5.000000 0.000000 0.000000
v -0.000000 0.000000 -0.000000
v 0.000001 0.000000 -5.000001
v 5.000001 5.000000 -4.999999
v 4.999998 5.000000 0.000001
v -0.000001 5.000000 -0.000001
v 0.000000 5.000000 -5.000000
vn 1.0000 -0.0000 0.0000
vn -0.0000 -0.0000 1.0000
vn -1.0000 -0.0000 -0.0000
vn 0.0000 0.0000 -1.0000
usemtl Walls
s off
f 69//21 66//21 65//21
f 70//22 67//22 66//22
f 71//23 68//23 67//23
f 65//24 72//24 69//24
f 69//21 70//21 66//21
f 70//22 71//22 67//22
f 71//23 72//23 68//23
f 65//24 68//24 72//24
